<svg xmlns="http://www.w3.org/2000/svg" fill="none" viewBox="0 0 80 80"><path fill="#151C22" d="M18.682 48.616h-5.376l-4.32-7.848-1.008-2.16H7.93l.096 3.144v6.864H3.754v-15.84h5.352l4.32 7.848 1.032 2.16h.024l-.096-3.144v-6.864h4.296v15.84zm7.492 0h-4.848v-12h4.848v12zm-.936-13.248-1.488-1.896-1.488 1.896h-3.384l2.568-4.224h4.608l2.568 4.224h-3.384zm19.531 1.008c1.2 0 2.152.36 2.856 1.08.704.72 1.056 1.736 1.056 3.048v8.112h-4.848v-6.912c0-.608-.104-1.04-.312-1.296-.192-.272-.488-.408-.888-.408-.512 0-.912.192-1.2.576-.272.384-.408.952-.408 1.704v6.336h-4.848v-6.912c0-.608-.104-1.04-.312-1.296-.192-.272-.488-.408-.888-.408-.496 0-.888.192-1.176.576-.288.384-.432.96-.432 1.728v6.312h-4.848v-12h4.368l.12 2.472c.368-.88.896-1.552 1.584-2.016.704-.464 1.544-.696 2.52-.696.912 0 1.68.208 2.304.624.64.416 1.096 1.016 1.368 1.8.368-.784.896-1.384 1.584-1.8.688-.416 1.488-.624 2.4-.624zm18.397 5.952c0 .576-.04 1.04-.12 1.392H55.15c.096.672.312 1.144.648 1.416s.808.408 1.416.408c.976 0 1.576-.384 1.8-1.152l3.912 1.128c-.304 1.088-.968 1.92-1.992 2.496-1.008.56-2.248.84-3.72.84-2.176 0-3.84-.536-4.992-1.608-1.152-1.088-1.728-2.632-1.728-4.632 0-1.984.56-3.52 1.68-4.608 1.136-1.088 2.728-1.632 4.776-1.632 2 0 3.536.536 4.608 1.608 1.072 1.056 1.608 2.504 1.608 4.344zm-6.192-2.664c-.528 0-.944.152-1.248.456-.288.304-.48.8-.576 1.488h3.48c-.08-.656-.256-1.144-.528-1.464-.256-.32-.632-.48-1.128-.48zm13.296 9.192c-1.424 0-2.64-.152-3.648-.456-.992-.304-1.816-.8-2.472-1.488l2.28-2.64c.416.496.928.88 1.536 1.152.608.256 1.28.384 2.016.384.416 0 .752-.048 1.008-.144.256-.096.384-.24.384-.432 0-.176-.144-.328-.432-.456-.288-.144-.8-.296-1.536-.456-1.76-.336-3.032-.816-3.816-1.44-.768-.624-1.152-1.432-1.152-2.424 0-.688.224-1.344.672-1.968.464-.624 1.152-1.128 2.064-1.512.928-.4 2.072-.6 3.432-.6 2.608 0 4.488.664 5.64 1.992l-2.184 2.376c-.752-.88-1.84-1.32-3.264-1.32-.496 0-.872.064-1.128.192-.256.112-.384.264-.384.456 0 .16.136.304.408.432.288.112.76.224 1.416.336 1.808.272 3.112.72 3.912 1.344.816.608 1.224 1.456 1.224 2.544 0 1.2-.504 2.192-1.512 2.976-1.008.768-2.496 1.152-4.464 1.152z"/></svg>